<svg width="240" height="237" viewBox="0 0 240 237" fill="none" xmlns="http://www.w3.org/2000/svg">
<path opacity="0.6" d="M240 72.3684C240 65.1053 234.027 59.2105 226.667 59.2105C219.307 59.2105 213.333 65.1053 213.333 72.3684C213.333 72.3684 213.26 93.9803 193.333 97.9868V78.9474C193.333 38.9803 160.5 6.57895 120 6.57895C79.5 6.57895 46.6667 38.9803 46.6667 78.9474V100.243C11.8533 110.566 0 152.836 0 177.632C0 184.895 5.97333 190.789 13.3333 190.789C20.6933 190.789 26.6667 184.895 26.6667 177.632C26.6667 177.632 26.68 154.342 48.9067 151.592C52.2533 183.441 59.6933 217.105 73.3333 217.105H80C106.667 217.105 100 230.263 126.667 230.263C153.333 230.263 146.667 217.105 166.667 217.105C186.667 217.105 182.633 230.263 206.667 230.263C217.713 230.263 226.667 221.428 226.667 210.526C226.667 206.086 211.507 177.671 201.633 149.553C239.873 140.447 240 95.9211 240 72.3684Z" fill="white"/>
<path opacity="0.8" d="M86.6666 93.1053C94.0304 93.1053 99.9999 87.2143 99.9999 79.9474C99.9999 72.6805 94.0304 66.7895 86.6666 66.7895C79.3028 66.7895 73.3333 72.6805 73.3333 79.9474C73.3333 87.2143 79.3028 93.1053 86.6666 93.1053Z" fill="white"/>
<path opacity="0.6" d="M153.333 105.263C168.061 105.263 180 93.4812 180 78.9474C180 64.4136 168.061 52.6316 153.333 52.6316C138.606 52.6316 126.667 64.4136 126.667 78.9474C126.667 93.4812 138.606 105.263 153.333 105.263Z" fill="white"/>
<path opacity="0.8" d="M153.333 98.6842C160.697 98.6842 166.667 92.7932 166.667 85.5263C166.667 78.2594 160.697 72.3684 153.333 72.3684C145.97 72.3684 140 78.2594 140 85.5263C140 92.7932 145.97 98.6842 153.333 98.6842Z" fill="white"/>
<path opacity="0.59" d="M147.947 128.23C165.613 141.303 171.887 162.513 161.947 175.592C152.007 188.671 129.62 188.671 111.947 175.592C94.2799 162.52 88.0066 141.309 97.9466 128.23C107.893 115.145 130.273 115.151 147.947 128.23Z" fill="white"/>
</svg>
